<svg width="48" height="48" viewBox="0 0 48 48" fill="none" xmlns="http://www.w3.org/2000/svg">
<path d="M24.0516 40.1016C19.6849 40.1016 15.9266 38.5266 12.7766 35.3766C9.62656 32.2266 8.05156 28.4682 8.05156 24.1016V21.8516L4.05156 25.8516L2.10156 23.9016L9.55156 16.4516L17.0016 23.9016L15.0516 25.8516L11.0516 21.8516V24.1016C11.0516 27.6682 12.3266 30.7266 14.8766 33.2766C17.4266 35.8266 20.4849 37.1016 24.0516 37.1016C25.0182 37.1016 25.9349 37.0182 26.8016 36.8516C27.6682 36.6849 28.4849 36.4349 29.2516 36.1016L31.4016 38.2516C30.2016 38.9182 28.9932 39.3932 27.7766 39.6766C26.5599 39.9599 25.3182 40.1016 24.0516 40.1016ZM38.5016 31.6516L31.0516 24.2016L33.0516 22.2016L37.0016 26.1516V24.1016C37.0016 20.5349 35.7266 17.4766 33.1766 14.9266C30.6266 12.3766 27.5682 11.1016 24.0016 11.1016C23.0349 11.1016 22.1182 11.1932 21.2516 11.3766C20.3849 11.5599 19.5682 11.7849 18.8016 12.0516L16.6516 9.90156C17.8516 9.2349 19.0599 8.76823 20.2766 8.50156C21.4932 8.2349 22.7349 8.10156 24.0016 8.10156C28.3682 8.10156 32.1266 9.67656 35.2766 12.8266C38.4266 15.9766 40.0016 19.7349 40.0016 24.1016V26.2516L44.0016 22.2516L45.9516 24.2016L38.5016 31.6516Z" fill="white"/>
</svg>
