<svg width="48" height="48" viewBox="0 0 48 48" fill="none" xmlns="http://www.w3.org/2000/svg">
<path d="M24 41.9508L21.95 40.1008C18.4244 36.8634 15.5097 34.0707 13.2058 31.7227C10.9019 29.3748 9.06667 27.2758 7.7 25.4258C6.33333 23.5758 5.375 21.9008 4.825 20.4008C4.275 18.9008 4 17.3841 4 15.8508C4 12.8456 5.00833 10.336 7.025 8.32193C9.04167 6.30783 11.5333 5.30078 14.5 5.30078C16.4 5.30078 18.1583 5.75078 19.775 6.65078C21.3917 7.55078 22.8 8.85078 24 10.5508C25.4 8.75078 26.8833 7.42578 28.45 6.57578C30.0167 5.72578 31.7 5.30078 33.5 5.30078C36.4667 5.30078 38.9583 6.30783 40.975 8.32193C42.9917 10.336 44 12.8456 44 15.8508C44 17.3841 43.725 18.9008 43.175 20.4008C42.625 21.9008 41.6667 23.5758 40.3 25.4258C38.9333 27.2758 37.0981 29.3748 34.7942 31.7227C32.4903 34.0707 29.5756 36.8634 26.05 40.1008L24 41.9508ZM24 38.0008C27.3745 34.9009 30.1515 32.2426 32.3309 30.0259C34.5103 27.8091 36.2417 25.8674 37.525 24.2008C38.8083 22.5341 39.7083 21.0485 40.225 19.744C40.7417 18.4395 41 17.1442 41 15.858C41 13.6532 40.3 11.8424 38.9 10.4258C37.5 9.00911 35.7037 8.30078 33.5112 8.30078C31.7938 8.30078 30.2042 8.82578 28.7425 9.87578C27.2808 10.9258 26.1 12.4008 25.2 14.3008H22.75C21.8833 12.4341 20.7192 10.9674 19.2575 9.90078C17.7958 8.83411 16.2062 8.30078 14.4887 8.30078C12.2962 8.30078 10.5 9.00911 9.1 10.4258C7.7 11.8424 7 13.656 7 15.8666C7 17.156 7.25833 18.4591 7.775 19.7758C8.29167 21.0924 9.19167 22.5924 10.475 24.2758C11.7583 25.9591 13.5 27.9008 15.7 30.1008C17.9 32.3008 20.6667 34.9341 24 38.0008Z" fill="#FF0000"/>
<path d="M23.6562 37.886C23.6562 32.1208 23.4322 26.3346 24.0696 20.5979C24.2867 18.6447 24.552 16.7308 24.552 14.7638C24.552 14.5752 24.5088 12.4433 24.33 12.4209C24.2406 12.4097 24.2829 13.1994 24.2725 13.2823C24.1356 14.3774 23.8056 15.4627 23.6562 16.563C23.1421 20.3489 23.224 24.1588 23.2428 27.971C23.2452 28.4607 23.2071 29.0584 23.3653 29.5329C23.3807 29.5793 23.6523 28.4054 23.6868 28.2696C24.2651 25.995 25.3025 23.8348 26.29 21.7158C27.4399 19.2483 28.6662 16.8055 30.0454 14.4575C30.4938 13.6943 30.9921 12.9603 31.4351 12.195C31.4507 12.1681 31.7201 11.64 31.6724 11.64C31.4247 11.64 31.0157 12.2606 30.8609 12.4056C29.8764 13.3275 28.898 14.246 27.9438 15.2002C27.2088 15.9352 26.4737 16.6702 25.7387 17.4052C25.5341 17.6098 25.2956 17.9568 25.0343 18.0943C24.7129 18.2635 25.2571 16.7448 25.287 16.6779C26.1809 14.6743 27.6385 12.9886 29.0884 11.3682C29.1588 11.2894 29.4218 10.8868 29.5669 10.9049C29.6491 10.9152 29.4816 11.0476 29.4291 11.1117C29.2477 11.3333 29.0726 11.5597 28.8778 11.7701C28.2243 12.4765 27.4233 13.0208 26.757 13.7148C26.2162 14.2782 25.7376 14.8949 25.2028 15.4605C25.1961 15.4676 24.9591 15.7776 24.9769 15.6442C25.0392 15.177 25.4729 14.6252 25.7311 14.2508C26.2196 13.5425 26.9159 12.9565 27.5571 12.3903C28.2222 11.803 28.9573 11.2467 29.7124 10.7786C30.1865 10.4847 30.5614 10.2509 31.0982 10.1316C31.5431 10.0328 32.0912 10.1163 32.5453 10.1163C33.3358 10.1163 34.1135 9.97852 34.8919 9.97852C35.2522 9.97852 35.6153 9.96519 35.9753 9.97852C36.0145 9.97997 36.2907 10.0671 36.0978 9.97852C35.6237 9.76071 34.9941 9.84071 34.49 9.84071C33.4156 9.84071 32.2318 9.70382 31.1748 9.94407C31.1191 9.95672 30.8539 10.0363 30.8264 9.94024C30.7915 9.81794 30.8465 9.73232 30.9642 9.70289C31.592 9.54595 32.3003 9.63399 32.9434 9.63399C33.5322 9.63399 34.1736 9.57404 34.7503 9.71821C35.8612 9.99594 36.9913 10.2927 38.0885 10.6331C38.5643 10.7808 38.8995 10.9211 39.1604 11.3414C39.426 11.7693 39.3671 12.3374 39.3671 12.819C39.3671 13.6554 39.3502 14.377 39.0876 15.181C38.766 16.1659 38.4838 17.1722 38.1268 18.1441C37.2916 20.4175 36.8055 22.796 35.937 25.0539C35.8004 25.4092 35.6776 25.7541 35.4853 26.0837C35.3057 26.3917 35.8669 25.4805 36.0327 25.165C36.4762 24.321 37.0435 23.5379 37.5142 22.7073C38.2638 21.3846 38.7963 19.9943 39.325 18.5728C39.964 16.8546 40.3326 15.0637 40.7606 13.2861C40.7972 13.1337 41.0911 12.0954 40.7452 12.1147C40.5167 12.1273 40.2305 13.1218 40.1136 13.2937C39.3269 14.4507 38.0826 15.163 36.7448 15.4873C35.6373 15.7558 34.6431 15.9386 33.6478 16.5247C33.5363 16.5904 32.8951 17.0486 32.752 16.9611C32.4573 16.7811 33.3255 15.5034 33.4028 15.3763C34.2797 13.9336 35.2287 12.4896 36.228 11.127C36.4773 10.787 35.7916 11.1417 35.7916 11.2571C35.7916 11.4623 37.002 11.6845 37.1774 11.8007C37.5087 12.0203 38.7796 13.101 38.456 13.6306C38.3095 13.8703 37.0257 13.704 36.7754 13.6612C36.0936 13.5448 35.25 13.2251 34.7158 12.7731C33.639 11.8619 32.2827 13.4885 31.7184 14.335C30.6096 15.9981 29.8578 17.8445 29.2339 19.7328C28.8886 20.7776 28.4568 21.7765 27.9361 22.7455C27.6262 23.3223 27.265 23.8877 27.002 24.4874C26.2765 26.1415 26.1452 27.9881 25.532 29.686C25.3527 30.1825 25.1117 30.7907 25.0343 31.313C24.9424 31.9336 24.867 32.6237 24.7204 33.231C24.6703 33.4385 24.628 34.0161 24.4142 34.1497C24.3518 34.1887 24.3453 34.2948 24.3453 34.2339C24.3453 34.1425 24.3402 34.0495 24.3453 33.9583C24.3562 33.7622 24.5099 33.6139 24.5482 33.4415C24.6854 32.824 24.5599 34.2572 24.552 34.3679C24.5111 34.9408 24.4492 35.5187 24.4831 36.0944C24.4897 36.2066 24.7612 36.4937 24.8276 36.5768" stroke="#FF0000" stroke-width="3" stroke-linecap="round"/>
<path d="M25.6562 35.9587C26.2298 34.9071 27.1715 33.9804 27.9876 33.122C29.4399 31.5944 31.0863 30.302 32.6657 28.9148C33.6436 28.0558 34.8236 27.3394 35.3722 26.1202C35.8532 25.0513 36.149 23.8702 36.1953 22.6902C36.2522 21.2377 35.7828 19.8922 35.6631 18.4562C35.6245 17.9925 35.6478 17.5202 35.6478 17.0551C35.6478 16.8127 35.6437 16.803 35.5406 17.0091C35.4363 17.2178 35.3933 17.4116 35.3569 17.6446C35.2173 18.5382 34.8213 19.3477 34.4994 20.1865C33.1805 23.6235 31.9881 27.0975 30.3496 30.4001C29.6678 31.7744 29.0306 33.2105 27.9455 34.3202C27.9022 34.3645 27.5763 34.8234 27.4861 34.7719C27.3954 34.7201 27.4464 34.3346 27.4478 34.259C27.4601 33.6356 27.6012 33.0356 27.7809 32.4406C29.1782 27.814 31.9138 23.6911 34.0323 19.3826C34.0921 19.261 35.0483 16.9117 34.9205 16.8751C34.6965 16.8111 34.4466 17.0475 34.285 17.1623C33.9169 17.4235 33.5377 17.5929 33.2208 17.9202C32.7533 18.403 32.4061 19.0284 32.0608 19.6008C31.4212 20.6612 30.8 21.7511 30.2463 22.8586C29.3888 24.5736 28.8735 26.4399 28.1522 28.2104C27.8983 28.8337 27.6101 29.3979 27.1684 29.8948C26.9594 30.1299 26.7303 30.335 26.5367 30.5839C26.4186 30.7357 26.2501 31.0061 26.0697 31.0662" stroke="#FF0000" stroke-width="3" stroke-linecap="round"/>
<path d="M22.8356 37.2668C22.5138 36.4622 21.7875 35.7429 21.2776 35.0541C20.4145 33.8884 19.5375 32.7328 18.7012 31.5475C18.126 30.7322 17.4703 29.9729 16.9172 29.1434C16.5291 28.5612 16.1733 27.963 15.7382 27.413C14.9023 26.3567 13.9653 25.4297 12.913 24.5878C12.1131 23.948 11.2815 23.31 10.6237 22.5206C10.4498 22.3119 10.3129 22.0567 10.1222 21.866C10.0682 21.812 9.99591 21.5986 10.0342 21.709C10.1647 22.0862 10.3721 22.4424 10.5395 22.8039C10.8945 23.5709 11.2064 24.345 11.6726 25.0549C12.312 26.0285 12.9823 27 13.8088 27.8265C14.41 28.4277 14.9274 29.0817 15.6693 29.5454C16.835 30.274 18.7523 30.7636 19.5204 29.2735C20.3412 27.6812 20.2807 25.5062 20.286 23.761C20.2907 22.261 20.0958 20.7962 19.9798 19.3049C19.9425 18.8249 19.9415 18.3465 19.9415 17.8655C19.9415 17.7959 19.9512 18.0058 19.9721 18.0723C20.1107 18.5109 20.2361 18.9382 20.3205 19.393C20.8167 22.0681 20.8652 24.8352 21.044 27.5432C21.1693 29.4409 21.3304 31.3497 21.3847 33.251C21.394 33.5752 21.4077 33.9103 21.3886 34.2349C21.3768 34.4353 21.1915 33.91 21.1818 33.8865C20.9229 33.2577 20.7679 32.6043 20.4775 31.9839C19.7972 30.5311 19.0297 29.149 18.1805 27.7882C17.2193 26.2479 16.1894 24.7424 15.095 23.2939C14.4367 22.4226 13.6981 21.6134 13.0546 20.7329C12.3952 19.8305 11.8192 18.955 11.3281 17.9727" stroke="#FF0000" stroke-width="3" stroke-linecap="round"/>
<path d="M9.19176 21.9005C9.00602 21.6942 8.92349 21.3823 8.80894 21.1349C8.59193 20.6661 8.40294 20.2022 8.29596 19.6955C8.17616 19.128 8.02033 18.5559 8.02033 17.9728C8.02033 17.1761 7.91628 16.4709 7.7447 15.6989C7.58191 14.9663 7.54785 14.3196 7.88252 13.6316C8.30985 12.7532 8.81119 11.984 9.36403 11.1854C9.67816 10.7317 9.86244 10.5002 10.3594 10.2207C10.53 10.1247 10.751 10.0484 10.9489 10.0484C11.169 10.0484 11.3959 9.84746 11.6035 9.78813C12.1604 9.62901 12.7435 9.35938 13.3262 9.35938C13.8315 9.35938 14.3368 9.35938 14.8422 9.35938C15.5253 9.35938 16.0375 9.61252 16.6338 9.91063C16.9217 10.0546 17.1765 10.2469 17.4607 10.393C17.8047 10.5699 18.1942 10.6569 18.5287 10.8371C19.2378 11.2189 19.9324 11.3903 20.3701 12.131C20.5944 12.5107 20.6936 12.9324 20.9596 13.2871C21.2151 13.6277 21.518 13.9065 21.7674 14.2518C22.5244 15.3 23.1101 16.4503 22.8584 17.8005C22.7605 18.3256 22.4386 18.704 22.0774 19.0753C21.8474 19.3118 21.633 19.6518 21.3233 19.7912C20.8743 19.9932 20.5356 19.5189 20.3012 19.1978C19.544 18.1608 19.0037 16.9873 18.6168 15.7678C18.2903 14.7388 18.1827 13.3277 17.3841 12.5291C16.2895 11.4345 14.1351 10.9579 12.6524 11.3883C11.5476 11.7091 11.3042 12.4404 10.9298 13.4249C10.3556 14.9348 10.2254 16.5346 10.2254 18.1489C10.2254 18.9834 10.2254 19.818 10.2254 20.6525C10.2254 20.8544 10.2842 21.1325 10.4321 21.2804C10.6511 21.4993 10.3219 20.4085 10.3096 20.285C10.1442 18.6308 10.4525 16.9074 11.0178 15.3582C11.3406 14.4734 11.6769 13.4401 12.5338 12.9426C13.2557 12.5234 13.9456 12.3672 14.7694 12.2879C15.5797 12.21 16.4072 12.1797 17.0128 12.8047C17.7579 13.574 18.2891 14.3317 18.8388 15.2548C19.2331 15.917 19.6571 16.4851 20.2859 16.9392C20.9692 17.4327 21.8324 17.6569 22.5521 18.1068C23.0523 18.4194 22.9788 18.4783 22.4373 18.4207C20.291 18.1924 18.3149 17.8692 16.4577 16.6789C15.3261 15.9537 14.4894 15.1595 13.9464 13.9226C13.7215 13.4104 13.5924 12.8635 13.4104 12.3377C13.364 12.2036 13.3188 12.2909 13.4028 12.399C13.5745 12.6197 13.7139 12.8657 13.8928 13.0804C14.3558 13.636 15.0268 13.9508 15.6346 14.3207C15.9583 14.5177 16.1935 14.7762 16.4615 15.0442C17.5575 16.1402 18.2479 17.8119 18.8082 19.2285C19.356 20.6133 19.6853 22.2446 19.8188 23.7304C19.8706 24.3067 19.5244 24.6046 18.9345 24.408C18.061 24.1168 17.469 23.4263 16.9362 22.7159C15.8783 21.3054 14.87 19.8752 14.088 18.2905C13.6331 17.3688 13.0497 16.1162 11.8791 16.1812C11.71 16.1906 11.8043 16.2438 11.9213 16.2539C12.2375 16.2814 12.5185 16.4748 12.8056 16.5947C14.3588 17.2433 15.6333 18.3803 17.1467 19.1021C17.8618 19.4432 18.6671 19.7864 19.1489 20.4535C19.293 20.653 19.5968 20.8817 19.5968 21.1425" stroke="#FF0000" stroke-width="3" stroke-linecap="round"/>
</svg>
