<svg width="40" height="37" viewBox="0 0 40 37" fill="none" xmlns="http://www.w3.org/2000/svg">
<path d="M20 36.9508L17.95 35.1008C14.4244 31.8634 11.5097 29.0707 9.2058 26.7227C6.90193 24.3748 5.06667 22.2758 3.7 20.4258C2.33333 18.5758 1.375 16.9008 0.825 15.4008C0.275 13.9008 0 12.3841 0 10.8508C0 7.84561 1.00833 5.336 3.025 3.32193C5.04167 1.30783 7.53333 0.300781 10.5 0.300781C12.4 0.300781 14.1583 0.750781 15.775 1.65078C17.3917 2.55078 18.8 3.85078 20 5.55078C21.4 3.75078 22.8833 2.42578 24.45 1.57578C26.0167 0.725781 27.7 0.300781 29.5 0.300781C32.4667 0.300781 34.9583 1.30783 36.975 3.32193C38.9917 5.336 40 7.84561 40 10.8508C40 12.3841 39.725 13.9008 39.175 15.4008C38.625 16.9008 37.6667 18.5758 36.3 20.4258C34.9333 22.2758 33.0981 24.3748 30.7942 26.7227C28.4903 29.0707 25.5756 31.8634 22.05 35.1008L20 36.9508ZM20 33.0008C23.3745 29.9009 26.1515 27.2426 28.3309 25.0259C30.5103 22.8091 32.2417 20.8674 33.525 19.2008C34.8083 17.5341 35.7083 16.0485 36.225 14.744C36.7417 13.4395 37 12.1442 37 10.858C37 8.6532 36.3 6.84245 34.9 5.42578C33.5 4.00911 31.7037 3.30078 29.5112 3.30078C27.7938 3.30078 26.2042 3.82578 24.7425 4.87578C23.2808 5.92578 22.1 7.40078 21.2 9.30078H18.75C17.8833 7.43411 16.7192 5.96745 15.2575 4.90078C13.7958 3.83411 12.2062 3.30078 10.4887 3.30078C8.29625 3.30078 6.5 4.00911 5.1 5.42578C3.7 6.84245 3 8.65605 3 10.8666C3 12.156 3.25833 13.4591 3.775 14.7758C4.29167 16.0924 5.19167 17.5924 6.475 19.2758C7.75833 20.9591 9.5 22.9008 11.7 25.1008C13.9 27.3008 16.6667 29.9341 20 33.0008Z" fill="#FF0000"/>
</svg>
